<svg width="5202" height="3076" xmlns="http://www.w3.org/2000/svg" xmlns:xlink="http://www.w3.org/1999/xlink" xml:space="preserve"><defs><clipPath id="clip0"><rect x="-2" y="285" width="5202" height="3076"/></clipPath><clipPath id="clip1"><rect x="1138" y="403" width="137" height="121"/></clipPath><clipPath id="clip2"><rect x="1138" y="403" width="137" height="95"/></clipPath><clipPath id="clip3"><rect x="1138" y="403" width="368" height="95"/></clipPath><clipPath id="clip4"><rect x="1113" y="488" width="170" height="69"/></clipPath><clipPath id="clip5"><rect x="1113" y="488" width="170" height="69"/></clipPath><clipPath id="clip6"><rect x="1015" y="488" width="269" height="69"/></clipPath></defs><g clip-path="url(#clip0)" transform="translate(2 -285)"><path d="M0.499836 304.022C0.499836 294.897 7.89697 287.5 17.0218 287.5L5180.98 287.5C5190.1 287.5 5197.5 294.897 5197.5 304.022L5197.5 3341.98C5197.5 3351.1 5190.1 3358.5 5180.98 3358.5L17.0218 3358.5C7.89697 3358.5 0.499836 3351.1 0.499836 3341.98Z" stroke="#A6A6A6" stroke-width="4.58333" stroke-miterlimit="8" stroke-dasharray="4.58333 4.58333" fill="#FFFFFF" fill-rule="evenodd"/><path d="M3705 1724.1C3705 1714.66 3712.66 1707 3722.1 1707L5002.9 1707C5012.34 1707 5020 1714.66 5020 1724.1L5020 2557.9C5020 2567.34 5012.34 2575 5002.9 2575L3722.1 2575C3712.66 2575 3705 2567.34 3705 2557.9Z" stroke="#595959" stroke-width="8.02083" stroke-miterlimit="8" fill="#FFFFFF" fill-rule="evenodd"/><path d="M2034 1721.82C2034 1711.43 2042.43 1703 2052.82 1703L3178.18 1703C3188.57 1703 3197 1711.43 3197 1721.82L3197 2553.18C3197 2563.57 3188.57 2572 3178.18 2572L2052.82 2572C2042.43 2572 2034 2563.57 2034 2553.18Z" stroke="#595959" stroke-width="8.02083" stroke-miterlimit="8" fill="#FFFFFF" fill-rule="evenodd"/><text fill="#262626" font-family="Roboto Medium,Roboto Medium_MSFontService,sans-serif" font-weight="500" font-size="83" transform="matrix(1 0 0 1 2504.31 2166)">router</text><path d="M180 1726.17C180 1713.37 190.372 1703 203.167 1703L1473.83 1703C1486.63 1703 1497 1713.37 1497 1726.17L1497 2548.83C1497 2561.63 1486.63 2572 1473.83 2572L203.167 2572C190.372 2572 180 2561.63 180 2548.83Z" stroke="#595959" stroke-width="8.02083" stroke-miterlimit="8" fill="#FFFFFF" fill-rule="evenodd"/><path d="M1270.5 1838.39C1270.5 1835.69 1272.69 1833.5 1275.39 1833.5L1485.61 1833.5C1488.31 1833.5 1490.5 1835.69 1490.5 1838.39L1490.5 1942.61C1490.5 1945.31 1488.31 1947.5 1485.61 1947.5L1275.39 1947.5C1272.69 1947.5 1270.5 1945.31 1270.5 1942.61Z" stroke="#FFC000" stroke-width="6.875" stroke-miterlimit="8" stroke-dasharray="6.875 6.875" fill="#FFF8E5" fill-rule="evenodd"/><text fill="#FFC000" font-family="Roboto,Roboto_MSFontService,sans-serif" font-weight="400" font-size="55" transform="matrix(1 0 0 1 1325.73 1909)">eth1</text><path d="M3705.5 2091.35C3705.5 2088.67 3707.67 2086.5 3710.35 2086.5L3918.65 2086.5C3921.33 2086.5 3923.5 2088.67 3923.5 2091.35L3923.5 2194.65C3923.5 2197.33 3921.33 2199.5 3918.65 2199.5L3710.35 2199.5C3707.67 2199.5 3705.5 2197.33 3705.5 2194.65Z" stroke="#00B0F0" stroke-width="6.875" stroke-miterlimit="8" stroke-dasharray="6.875 6.875" fill="#F4FAFD" fill-rule="evenodd"/><text fill="#00B0F0" font-family="Roboto,Roboto_MSFontService,sans-serif" font-weight="400" font-size="55" transform="matrix(1 0 0 1 3759.67 2161)">eth1</text><path d="M1270.5 2004.35C1270.5 2001.67 1272.67 1999.5 1275.35 1999.5L1485.65 1999.5C1488.33 1999.5 1490.5 2001.67 1490.5 2004.35L1490.5 2107.65C1490.5 2110.33 1488.33 2112.5 1485.65 2112.5L1275.35 2112.5C1272.67 2112.5 1270.5 2110.33 1270.5 2107.65Z" stroke="#FFC000" stroke-width="6.875" stroke-miterlimit="8" stroke-dasharray="6.875 6.875" fill="#FFF8E5" fill-rule="evenodd"/><text fill="#FFC000" font-family="Roboto,Roboto_MSFontService,sans-serif" font-weight="400" font-size="55" transform="matrix(1 0 0 1 1325.73 2075)">eth2</text><path d="M1270.5 2180.35C1270.5 2177.67 1272.67 2175.5 1275.35 2175.5L1485.65 2175.5C1488.33 2175.5 1490.5 2177.67 1490.5 2180.35L1490.5 2283.65C1490.5 2286.33 1488.33 2288.5 1485.65 2288.5L1275.35 2288.5C1272.67 2288.5 1270.5 2286.33 1270.5 2283.65Z" stroke="#FFC000" stroke-width="6.875" stroke-miterlimit="8" stroke-dasharray="6.875 6.875" fill="#FFF8E5" fill-rule="evenodd"/><text fill="#FFC000" font-family="Roboto,Roboto_MSFontService,sans-serif" font-weight="400" font-size="55" transform="matrix(1 0 0 1 1327.57 2251)">eth3</text><path d="M1270.5 2346.35C1270.5 2343.67 1272.67 2341.5 1275.35 2341.5L1485.65 2341.5C1488.33 2341.5 1490.5 2343.67 1490.5 2346.35L1490.5 2449.65C1490.5 2452.33 1488.33 2454.5 1485.65 2454.5L1275.35 2454.5C1272.67 2454.5 1270.5 2452.33 1270.5 2449.65Z" stroke="#FFC000" stroke-width="6.875" stroke-miterlimit="8" stroke-dasharray="6.875 6.875" fill="#FFF8E5" fill-rule="evenodd"/><text fill="#FFC000" font-family="Roboto,Roboto_MSFontService,sans-serif" font-weight="400" font-size="55" transform="matrix(1 0 0 1 1327.57 2416)">eth4</text><path d="M2962.5 2091.35C2962.5 2088.67 2964.67 2086.5 2967.35 2086.5L3185.65 2086.5C3188.33 2086.5 3190.5 2088.67 3190.5 2091.35L3190.5 2194.65C3190.5 2197.33 3188.33 2199.5 3185.65 2199.5L2967.35 2199.5C2964.67 2199.5 2962.5 2197.33 2962.5 2194.65Z" stroke="#00B0F0" stroke-width="6.875" stroke-miterlimit="8" stroke-dasharray="6.875 6.875" fill="#F4FAFD" fill-rule="evenodd"/><text fill="#00B0F0" font-family="Roboto,Roboto_MSFontService,sans-serif" font-weight="400" font-size="55" transform="matrix(1 0 0 1 3022.25 2161)">eth5</text><path d="M2040.5 1838.39C2040.5 1835.69 2042.69 1833.5 2045.39 1833.5L2255.61 1833.5C2258.31 1833.5 2260.5 1835.69 2260.5 1838.39L2260.5 1942.61C2260.5 1945.31 2258.31 1947.5 2255.61 1947.5L2045.39 1947.5C2042.69 1947.5 2040.5 1945.31 2040.5 1942.61Z" stroke="#FFC000" stroke-width="6.875" stroke-miterlimit="8" stroke-dasharray="6.875 6.875" fill="#FFF8E5" fill-rule="evenodd"/><text fill="#FFC000" font-family="Roboto,Roboto_MSFontService,sans-serif" font-weight="400" font-size="55" transform="matrix(1 0 0 1 2095.86 1909)">eth1</text><path d="M2040.5 2004.35C2040.5 2001.67 2042.67 1999.5 2045.35 1999.5L2255.65 1999.5C2258.33 1999.5 2260.5 2001.67 2260.5 2004.35L2260.5 2107.65C2260.5 2110.33 2258.33 2112.5 2255.65 2112.5L2045.35 2112.5C2042.67 2112.5 2040.5 2110.33 2040.5 2107.65Z" stroke="#FFC000" stroke-width="6.875" stroke-miterlimit="8" stroke-dasharray="6.875 6.875" fill="#FFF8E5" fill-rule="evenodd"/><text fill="#FFC000" font-family="Roboto,Roboto_MSFontService,sans-serif" font-weight="400" font-size="55" transform="matrix(1 0 0 1 2095.86 2075)">eth2</text><path d="M2040.5 2180.35C2040.5 2177.67 2042.67 2175.5 2045.35 2175.5L2255.65 2175.5C2258.33 2175.5 2260.5 2177.67 2260.5 2180.35L2260.5 2283.65C2260.5 2286.33 2258.33 2288.5 2255.65 2288.5L2045.35 2288.5C2042.67 2288.5 2040.5 2286.33 2040.5 2283.65Z" stroke="#FFC000" stroke-width="6.875" stroke-miterlimit="8" stroke-dasharray="6.875 6.875" fill="#FFF8E5" fill-rule="evenodd"/><text fill="#FFC000" font-family="Roboto,Roboto_MSFontService,sans-serif" font-weight="400" font-size="55" transform="matrix(1 0 0 1 2095.86 2251)">eth3</text><path d="M2040.5 2346.35C2040.5 2343.67 2042.67 2341.5 2045.35 2341.5L2255.65 2341.5C2258.33 2341.5 2260.5 2343.67 2260.5 2346.35L2260.5 2449.65C2260.5 2452.33 2258.33 2454.5 2255.65 2454.5L2045.35 2454.5C2042.67 2454.5 2040.5 2452.33 2040.5 2449.65Z" stroke="#FFC000" stroke-width="6.875" stroke-miterlimit="8" stroke-dasharray="6.875 6.875" fill="#FFF8E5" fill-rule="evenodd"/><text fill="#FFC000" font-family="Roboto,Roboto_MSFontService,sans-serif" font-weight="400" font-size="55" transform="matrix(1 0 0 1 2095.86 2417)">eth4</text><path d="M2039.98 1890.64 1490.5 1890.5" stroke="#595959" stroke-width="4.58333" stroke-miterlimit="8" fill="none" fill-rule="evenodd"/><path d="M2039.98 2056.64 1490.5 2056.5" stroke="#595959" stroke-width="4.58333" stroke-miterlimit="8" fill="none" fill-rule="evenodd"/><path d="M2039.98 2232.64 1490.5 2232.5" stroke="#595959" stroke-width="4.58333" stroke-miterlimit="8" fill="none" fill-rule="evenodd"/><path d="M2039.98 2397.64 1490.5 2397.5" stroke="#595959" stroke-width="4.58333" stroke-miterlimit="8" fill="none" fill-rule="evenodd"/><path d="M0 0 514.33 0.000360892" stroke="#595959" stroke-width="4.58333" stroke-miterlimit="8" fill="none" fill-rule="evenodd" transform="matrix(-1 0 0 1 3704.83 2142.5)"/><text fill="#00B0F0" font-family="Roboto,Roboto_MSFontService,sans-serif" font-weight="400" font-size="62" transform="matrix(1 0 0 1 3288.57 2097)">10.0.0.0/24</text><text fill="#FFC000" font-family="Roboto,Roboto_MSFontService,sans-serif" font-weight="400" font-size="62" transform="matrix(1 0 0 1 1584.44 1844)">10.0.10.0/24</text><text fill="#FFC000" font-family="Roboto,Roboto_MSFontService,sans-serif" font-weight="400" font-size="62" transform="matrix(1 0 0 1 1584.44 2011)">10.0.20.0/24</text><text fill="#FFC000" font-family="Roboto,Roboto_MSFontService,sans-serif" font-weight="400" font-size="62" transform="matrix(1 0 0 1 1580.31 2187)">10.0.30.0/24</text><text fill="#FFC000" font-family="Roboto,Roboto_MSFontService,sans-serif" font-weight="400" font-size="62" transform="matrix(1 0 0 1 1587.26 2350)">10.0.40.0/24</text><path d="M627.5 2045.23C627.5 2040.96 630.96 2037.5 635.227 2037.5L1002.77 2037.5C1007.04 2037.5 1010.5 2040.96 1010.5 2045.23L1010.5 2243.77C1010.5 2248.04 1007.04 2251.5 1002.77 2251.5L635.227 2251.5C630.96 2251.5 627.5 2248.04 627.5 2243.77Z" stroke="#A6A6A6" stroke-width="6.875" stroke-miterlimit="8" stroke-dasharray="6.875 6.875" stroke-opacity="0.858824" fill="none" fill-rule="evenodd"/><path d="M954.5 1712.39C954.5 1709.69 956.691 1707.5 959.394 1707.5L1169.61 1707.5C1172.31 1707.5 1174.5 1709.69 1174.5 1712.39L1174.5 1816.61C1174.5 1819.31 1172.31 1821.5 1169.61 1821.5L959.394 1821.5C956.691 1821.5 954.5 1819.31 954.5 1816.61Z" stroke="#92D050" stroke-width="6.875" stroke-miterlimit="8" stroke-dasharray="6.875 6.875" fill="#F5FAF2" fill-rule="evenodd"/><text fill="#92D050" font-family="Roboto,Roboto_MSFontService,sans-serif" font-weight="400" font-size="55" transform="matrix(1 0 0 1 1009.69 1783)">eth5</text><path d="M670.5 1712.39C670.5 1709.69 672.691 1707.5 675.394 1707.5L885.606 1707.5C888.309 1707.5 890.5 1709.69 890.5 1712.39L890.5 1816.61C890.5 1819.31 888.309 1821.5 885.606 1821.5L675.394 1821.5C672.691 1821.5 670.5 1819.31 670.5 1816.61Z" stroke="#A6A6A6" stroke-width="6.875" stroke-miterlimit="8" stroke-dasharray="6.875 6.875" fill="#F2F2F2" fill-rule="evenodd" fill-opacity="0.34902"/><text fill="#A6A6A6" font-family="Roboto,Roboto_MSFontService,sans-serif" font-weight="400" font-size="55" transform="matrix(1 0 0 1 725.895 1783)">eth0</text><path d="M4462.5 1719.35C4462.5 1716.67 4464.67 1714.5 4467.35 1714.5L4677.65 1714.5C4680.33 1714.5 4682.5 1716.67 4682.5 1719.35L4682.5 1822.65C4682.5 1825.33 4680.33 1827.5 4677.65 1827.5L4467.35 1827.5C4464.67 1827.5 4462.5 1825.33 4462.5 1822.65Z" stroke="#92D050" stroke-width="6.875" stroke-miterlimit="8" stroke-dasharray="6.875 6.875" fill="#F5FAF2" fill-rule="evenodd"/><text fill="#92D050" font-family="Roboto,Roboto_MSFontService,sans-serif" font-weight="400" font-size="55" transform="matrix(1 0 0 1 4518.14 1790)">eth5</text><path d="M4176.5 1719.35C4176.5 1716.67 4178.67 1714.5 4181.35 1714.5L4391.65 1714.5C4394.33 1714.5 4396.5 1716.67 4396.5 1719.35L4396.5 1822.65C4396.5 1825.33 4394.33 1827.5 4391.65 1827.5L4181.35 1827.5C4178.67 1827.5 4176.5 1825.33 4176.5 1822.65Z" stroke="#A6A6A6" stroke-width="6.875" stroke-miterlimit="8" stroke-dasharray="6.875 6.875" fill="#F2F2F2" fill-rule="evenodd" fill-opacity="0.34902"/><text fill="#A6A6A6" font-family="Roboto,Roboto_MSFontService,sans-serif" font-weight="400" font-size="55" transform="matrix(1 0 0 1 4232.05 1790)">eth0</text><path d="M1064.5 1707.52 1064.5 1468.51 4572.01 1468.51 4572.01 1229.5" stroke="#92D050" stroke-width="3.4375" stroke-miterlimit="8" stroke-dasharray="13.75 10.3125" fill="none" fill-rule="evenodd"/><path d="M2689.5 1716.35C2689.5 1713.67 2691.67 1711.5 2694.35 1711.5L2904.65 1711.5C2907.33 1711.5 2909.5 1713.67 2909.5 1716.35L2909.5 1819.65C2909.5 1822.33 2907.33 1824.5 2904.65 1824.5L2694.35 1824.5C2691.67 1824.5 2689.5 1822.33 2689.5 1819.65Z" stroke="#92D050" stroke-width="6.875" stroke-miterlimit="8" stroke-dasharray="6.875 6.875" fill="#F5FAF2" fill-rule="evenodd"/><text fill="#92D050" font-family="Roboto,Roboto_MSFontService,sans-serif" font-weight="400" font-size="55" transform="matrix(1 0 0 1 2745.18 1787)">eth6</text><path d="M2799.5 1711.25 2799.5 1470.37 3481.52 1470.37 3481.52 1229.5" stroke="#92D050" stroke-width="3.4375" stroke-miterlimit="8" stroke-dasharray="13.75 10.3125" fill="none" fill-rule="evenodd"/><path d="M0 0 242.405 0 242.405 1090.94 484.809 1090.94" stroke="#92D050" stroke-width="3.4375" stroke-miterlimit="8" stroke-dasharray="13.75 10.3125" fill="none" fill-rule="evenodd" transform="matrix(-1.83697e-16 -1 -1 1.83697e-16 4572.44 1714.31)"/><path d="M2404.5 1715.35C2404.5 1712.67 2406.67 1710.5 2409.35 1710.5L2620.65 1710.5C2623.33 1710.5 2625.5 1712.67 2625.5 1715.35L2625.5 1818.65C2625.5 1821.33 2623.33 1823.5 2620.65 1823.5L2409.35 1823.5C2406.67 1823.5 2404.5 1821.33 2404.5 1818.65Z" stroke="#A6A6A6" stroke-width="6.875" stroke-miterlimit="8" stroke-dasharray="6.875 6.875" fill="#F2F2F2" fill-rule="evenodd" fill-opacity="0.34902"/><text fill="#A6A6A6" font-family="Roboto,Roboto_MSFontService,sans-serif" font-weight="400" font-size="55" transform="matrix(1 0 0 1 2460.26 1786)">eth0</text><text fill="#92D050" font-family="Roboto,Roboto_MSFontService,sans-serif" font-weight="400" font-size="62" transform="matrix(1 0 0 1 2605.71 1411)">172.0.0.0/24</text><path d="M3088.5 697.571C3088.5 685.382 3098.38 675.5 3110.57 675.5L3852.43 675.5C3864.62 675.5 3874.5 685.382 3874.5 697.571L3874.5 1207.43C3874.5 1219.62 3864.62 1229.5 3852.43 1229.5L3110.57 1229.5C3098.38 1229.5 3088.5 1219.62 3088.5 1207.43Z" stroke="#92D050" stroke-width="6.875" stroke-miterlimit="8" fill="#FFFFFF" fill-rule="evenodd"/><text fill="#262626" font-family="Roboto Medium,Roboto Medium_MSFontService,sans-serif" font-weight="500" font-size="83" transform="matrix(1 0 0 1 3338.68 981)">grafana</text><path d="M4178.5 697.571C4178.5 685.382 4188.38 675.5 4200.57 675.5L4942.43 675.5C4954.62 675.5 4964.5 685.382 4964.5 697.571L4964.5 1207.43C4964.5 1219.62 4954.62 1229.5 4942.43 1229.5L4200.57 1229.5C4188.38 1229.5 4178.5 1219.62 4178.5 1207.43Z" stroke="#92D050" stroke-width="6.875" stroke-miterlimit="8" fill="#FFFFFF" fill-rule="evenodd"/><text fill="#262626" font-family="Roboto Medium,Roboto Medium_MSFontService,sans-serif" font-weight="500" font-size="83" transform="matrix(1 0 0 1 4422.67 981)">influxdb</text><path d="M3369.5 688.351C3369.5 685.672 3371.67 683.5 3374.35 683.5L3584.65 683.5C3587.33 683.5 3589.5 685.672 3589.5 688.351L3589.5 791.649C3589.5 794.328 3587.33 796.5 3584.65 796.5L3374.35 796.5C3371.67 796.5 3369.5 794.328 3369.5 791.649Z" stroke="#A6A6A6" stroke-width="6.875" stroke-miterlimit="8" stroke-dasharray="6.875 6.875" fill="#F2F2F2" fill-rule="evenodd" fill-opacity="0.34902"/><text fill="#A6A6A6" font-family="Roboto,Roboto_MSFontService,sans-serif" font-weight="400" font-size="55" transform="matrix(1 0 0 1 3424.76 758)">eth0</text><path d="M4461.5 686.351C4461.5 683.672 4463.67 681.5 4466.35 681.5L4676.65 681.5C4679.33 681.5 4681.5 683.672 4681.5 686.351L4681.5 789.649C4681.5 792.328 4679.33 794.5 4676.65 794.5L4466.35 794.5C4463.67 794.5 4461.5 792.328 4461.5 789.649Z" stroke="#A6A6A6" stroke-width="6.875" stroke-miterlimit="8" stroke-dasharray="6.875 6.875" fill="#F2F2F2" fill-rule="evenodd" fill-opacity="0.34902"/><text fill="#A6A6A6" font-family="Roboto,Roboto_MSFontService,sans-serif" font-weight="400" font-size="55" transform="matrix(1 0 0 1 4516.8 757)">eth0</text><path d="M3372.5 1119.35C3372.5 1116.67 3374.67 1114.5 3377.35 1114.5L3588.65 1114.5C3591.33 1114.5 3593.5 1116.67 3593.5 1119.35L3593.5 1222.65C3593.5 1225.33 3591.33 1227.5 3588.65 1227.5L3377.35 1227.5C3374.67 1227.5 3372.5 1225.33 3372.5 1222.65Z" stroke="#92D050" stroke-width="6.875" stroke-miterlimit="8" stroke-dasharray="6.875 6.875" fill="#F5FAF2" fill-rule="evenodd"/><text fill="#92D050" font-family="Roboto,Roboto_MSFontService,sans-serif" font-weight="400" font-size="55" transform="matrix(1 0 0 1 3428.27 1189)">eth1</text><path d="M4461.5 1119.35C4461.5 1116.67 4463.67 1114.5 4466.35 1114.5L4676.65 1114.5C4679.33 1114.5 4681.5 1116.67 4681.5 1119.35L4681.5 1222.65C4681.5 1225.33 4679.33 1227.5 4676.65 1227.5L4466.35 1227.5C4463.67 1227.5 4461.5 1225.33 4461.5 1222.65Z" stroke="#92D050" stroke-width="6.875" stroke-miterlimit="8" stroke-dasharray="6.875 6.875" fill="#F5FAF2" fill-rule="evenodd"/><text fill="#92D050" font-family="Roboto,Roboto_MSFontService,sans-serif" font-weight="400" font-size="55" transform="matrix(1 0 0 1 4516.8 1189)">eth1</text><text fill="#A6A6A6" font-family="Open Sans SemiBold,Open Sans SemiBold_MSFontService,sans-serif" font-weight="600" font-size="57" transform="matrix(1 0 0 1 680.136 2128)">forwarder</text><text fill="#A6A6A6" font-family="Open Sans SemiBold,Open Sans SemiBold_MSFontService,sans-serif" font-weight="600" font-size="57" transform="matrix(1 0 0 1 722.257 2197)">(proxy)</text><text fill="#262626" font-family="Roboto Medium,Roboto Medium_MSFontService,sans-serif" font-weight="500" font-size="83" transform="matrix(1 0 0 1 278.029 1862)">dron</text><text fill="#262626" font-family="Roboto Medium,Roboto Medium_MSFontService,sans-serif" font-weight="500" font-size="83" transform="matrix(1 0 0 1 446.466 1862)">e</text><text fill="#262626" font-family="Roboto Medium,Roboto Medium_MSFontService,sans-serif" font-weight="500" font-size="83" transform="matrix(1 0 0 1 3798.8 1859)">server</text><path d="M0 0C65.041 0 130.082 63.5971 130.082 127.194 130.082 190.791 195.123 254.388 260.164 254.388" stroke="#E7E6E6" stroke-width="3.4375" stroke-miterlimit="8" fill="none" fill-rule="evenodd" transform="matrix(-1 1.22465e-16 1.22465e-16 1 1270.66 1890.5)"/><path d="M0 0C65.041 0 130.082 22.1467 130.082 44.2934 130.082 66.4401 195.123 88.5868 260.164 88.5868" stroke="#E7E6E6" stroke-width="3.4375" stroke-miterlimit="8" fill="none" fill-rule="evenodd" transform="matrix(-1 1.22465e-16 1.22465e-16 1 1270.66 2056.5)"/><path d="M1270.66 2231.9C1205.62 2231.9 1140.58 2210.05 1140.58 2188.2 1140.58 2166.35 1075.54 2144.5 1010.5 2144.5" stroke="#E7E6E6" stroke-width="3.4375" stroke-miterlimit="8" fill="none" fill-rule="evenodd"/><path d="M1270.66 2397.7C1205.62 2397.7 1140.58 2334.4 1140.58 2271.1 1140.58 2207.8 1075.54 2144.5 1010.5 2144.5" stroke="#E7E6E6" stroke-width="3.4375" stroke-miterlimit="8" fill="none" fill-rule="evenodd"/><path d="M4171.5 2045.23C4171.5 2040.96 4174.96 2037.5 4179.23 2037.5L4545.77 2037.5C4550.04 2037.5 4553.5 2040.96 4553.5 2045.23L4553.5 2243.77C4553.5 2248.04 4550.04 2251.5 4545.77 2251.5L4179.23 2251.5C4174.96 2251.5 4171.5 2248.04 4171.5 2243.77Z" stroke="#A6A6A6" stroke-width="6.875" stroke-miterlimit="8" stroke-dasharray="6.875 6.875" stroke-opacity="0.858824" fill="none" fill-rule="evenodd"/><text fill="#AFABAB" font-family="Open Sans SemiBold,Open Sans SemiBold_MSFontService,sans-serif" font-weight="600" font-size="57" transform="matrix(1 0 0 1 4223.32 2126)">forwarder</text><text fill="#AFABAB" font-family="Open Sans SemiBold,Open Sans SemiBold_MSFontService,sans-serif" font-weight="600" font-size="57" transform="matrix(1 0 0 1 4265.42 2195)">(proxy)</text><path d="M4681.5 2141C4681.5 2104.27 4711.27 2074.5 4748 2074.5L4888 2074.5C4924.73 2074.5 4954.5 2104.27 4954.5 2141L4954.5 2141C4954.5 2177.73 4924.73 2207.5 4888 2207.5L4748 2207.5C4711.27 2207.5 4681.5 2177.73 4681.5 2141Z" stroke="#92D050" stroke-width="4.58333" stroke-linecap="square" stroke-miterlimit="8" stroke-dasharray="13.75 4.58333" fill="#F5FAF2" fill-rule="evenodd"/><text fill="#262626" font-family="Roboto Medium,Roboto Medium_MSFontService,sans-serif" font-weight="500" font-size="50" transform="matrix(1 0 0 1 4753.34 2159)">ffplay</text><path d="M0 0 127.913 3.43858" stroke="#E7E6E6" stroke-width="3.4375" stroke-miterlimit="8" fill="none" fill-rule="evenodd" transform="matrix(-1 0 0 1 4681.41 2141.5)"/><text fill="#92D050" font-family="Open Sans Medium,Open Sans Medium_MSFontService,sans-serif" font-weight="500" font-size="55" transform="matrix(1 0 0 1 4680.41 2305)">application</text><text fill="#92D050" font-family="Open Sans Medium,Open Sans Medium_MSFontService,sans-serif" font-weight="500" font-size="55" transform="matrix(1 0 0 1 4743.73 2378)">server</text><text fill="#92D050" font-family="Open Sans Medium,Open Sans Medium_MSFontService,sans-serif" font-weight="500" font-size="55" transform="matrix(1 0 0 1 590.608 823)">client</text><text fill="#92D050" font-family="Open Sans Medium,Open Sans Medium_MSFontService,sans-serif" font-weight="500" font-size="55" transform="matrix(1 0 0 1 516.977 896)">application</text><path d="M-1.11873 606.001-0.659526 600.393 3.74989 578.556 10.4889 579.917 6.11949 601.555 6.17603 601.156 5.73334 606.562ZM8.97414 558.236 16.4102 535.207 17.9019 531.857 24.1823 534.654 22.7652 537.836 22.8962 537.494 15.5165 560.348ZM26.2924 513.016 30.5535 503.447 39.1386 488.355 45.1145 491.754 36.6129 506.7 36.7652 506.398 32.5728 515.812ZM49.6802 470.274 65.394 447.706 71.0361 451.634 55.3223 474.202ZM78.2451 431.232 94.1815 411.962 96.0826 409.98 101.045 414.738 99.231 416.629 99.399 416.441 83.5431 435.613ZM110.358 395.093 122.098 382.851 130.048 375.591 134.684 380.668 126.818 387.851 126.981 387.692 115.32 399.852ZM145.279 361.684 153.198 354.452 166.429 343.795 170.741 349.149 157.594 359.74 157.755 359.601 149.915 366.76ZM182.491 330.857 187.417 326.889 204.768 314.424 208.779 320.008 191.506 332.417 191.656 332.302 186.804 336.211ZM221.519 302.391 224.626 300.159 244.651 287.216 248.383 292.99 228.428 305.887 228.568 305.792 225.53 307.974ZM261.973 276.021 264.703 274.256 285.811 261.992 289.265 267.936 268.227 280.16 268.366 280.074 265.705 281.795ZM303.644 251.63 307.646 249.305 328.001 238.569 331.208 244.65 310.916 255.353 311.039 255.285 307.098 257.575ZM346.243 228.946 353.268 225.241 371.031 216.74 373.999 222.942 356.296 231.413 356.416 231.353 349.451 235.027ZM389.636 207.837 401.447 202.185 414.769 196.387 417.512 202.69 404.247 208.464 404.359 208.413 392.603 214.039ZM433.68 188.155 452.245 180.074 459.102 177.369 461.626 183.764 454.824 186.448 454.934 186.402 436.424 194.459ZM478.288 169.798 503.868 159.705 506.392 166.1 480.811 176.194ZM523.354 152.636 549.228 143.32 551.557 149.788 525.683 159.104ZM568.818 136.542 594.968 128.033 597.095 134.571 570.945 143.079ZM614.581 121.651 618.609 120.341 641.026 113.758 642.963 120.355 620.593 126.923 620.689 126.894 616.708 128.189ZM660.816 107.948 678.511 102.752 687.35 100.401 689.117 107.045 680.321 109.385 680.406 109.361 662.753 114.544ZM707.282 95.1009 733.859 88.0336 735.626 94.6777 709.049 101.745ZM753.972 83.0737 780.729 76.7254 782.317 83.4147 755.559 89.763ZM800.797 71.9642 804.248 71.1455 827.768 66.1775 829.189 72.904 805.71 77.8633 805.793 77.8447 802.384 78.6535ZM847.948 61.9149 870.017 57.2533 874.957 56.3321 876.218 63.0906 871.318 64.0043 871.398 63.9883 849.368 68.6415ZM895.233 52.5516 922.267 47.5109 923.527 54.2694 896.493 59.3101ZM942.643 43.8373 969.789 39.436 970.889 46.2224 943.744 50.6237ZM990.148 36.135 1006.55 33.4756 1017.41 31.9671 1018.35 38.7767 1007.54 40.2798 1007.61 40.2682 991.248 42.9214ZM1037.84 29.1288 1065.07 25.3444 1066.02 32.1539 1038.78 35.9384ZM1085.61 22.6887 1112.93 19.5374 1113.71 26.3671 1086.4 29.5184ZM1133.42 17.1739 1149.39 15.3309 1160.83 14.2599 1161.47 21.105 1150.07 22.1725 1150.14 22.1649 1134.2 24.0037ZM1181.37 12.3375 1208.75 9.77419 1209.39 16.6193 1182.01 19.1825ZM1229.37 7.98926 1256.8 6.03975 1257.29 12.8975 1229.86 14.847ZM1277.38 4.57762 1297.73 3.13112 1304.89 2.77174 1305.23 9.63809 1298.11 9.99568 1298.18 9.99135 1277.86 11.4353ZM1325.49 1.73755 1352.95 0.358631 1353.3 7.22498 1325.83 8.6039ZM1373.55-0.675557 1373.74-0.685118 1401.12-1.44125 1401.31 5.43113 1373.97 6.18619 1374.05 6.18317 1373.9 6.19079ZM1421.73-2.01069 1449.22-2.76995 1449.41 4.10243 1421.92 4.86169ZM1469.92-2.95037 1497.42-3.14868 1497.47 3.72614 1469.97 3.92445ZM1518.04-3.29742 1528.82-3.37517 1545.61-3.14123 1545.52 3.7331 1528.76 3.49967 1528.84 3.49991 1518.09 3.5774ZM1566.24-2.85386 1593.73-2.4707 1593.64 4.40363 1566.14 4.02047ZM1614.43-1.98027 1641.91-0.998756 1641.66 5.87186 1614.18 4.89035ZM1662.52-0.262618 1680.47 0.37846 1690.07 0.920002 1689.68 7.78408 1680.12 7.24454 1680.19 7.24781 1662.28 6.608ZM1710.66 2.08233 1738.11 3.63209 1737.73 10.4962 1710.27 8.9464ZM1758.77 4.88529 1786.19 7.02319 1785.66 13.8774 1758.24 11.7395ZM1806.75 8.62662 1827.74 10.2632 1834.23 10.9076 1833.55 17.7489 1827.1 17.1082 1827.17 17.1146 1806.22 15.4808ZM1854.75 12.9457 1882.12 15.6632 1881.44 22.5045 1854.07 19.787ZM1902.71 17.7753 1930.01 21.0728 1929.19 27.8982 1901.88 24.6007ZM1950.49 23.546 1970.01 25.9045 1977.84 27.0331 1976.86 33.8377 1969.07 32.7148 1969.15 32.7252 1949.66 30.3714ZM1998.26 29.9758 2025.48 33.8994 2024.49 40.7041 1997.28 36.7804ZM2045.94 37.0062 2073.07 41.5313 2071.93 48.3126 2044.81 43.7875ZM2093.41 44.9251 2106.54 47.1159 2120.56 49.7907 2119.27 56.5438 2105.29 53.8765 2105.37 53.8906 2092.28 51.7064ZM2140.81 53.6578 2167.83 58.814 2166.54 65.5671 2139.53 60.4109ZM2188.09 63.0844 2214.97 68.9055 2213.51 75.6247 2186.64 69.8036ZM2235.12 73.2714 2236.58 73.5867 2261.94 79.7233 2260.33 86.4055 2235 80.2786 2235.08 80.2971 2233.67 79.9906ZM2281.99 84.574 2298.91 88.6692 2308.74 91.3136 2306.95 97.9523 2297.17 95.3194 2297.25 95.3411 2280.37 91.2561ZM2328.65 96.674 2355.21 103.821 2353.42 110.46 2326.87 103.313ZM2375.1 109.617 2401.46 117.454 2399.5 124.044 2373.14 116.207ZM2421.29 123.457 2447.41 132.04 2445.27 138.571 2419.14 129.988ZM2467.01 138.477 2474.31 140.876 2493.04 147.666 2490.69 154.129 2472.02 147.357 2472.11 147.391 2464.86 145.009ZM2512.43 154.696 2528.53 160.536 2538.27 164.401 2535.73 170.79 2526.04 166.945 2526.14 166.982 2510.08 161.159ZM2557.43 172.013 2580.57 181.201 2583.06 182.289 2580.31 188.59 2577.88 187.526 2577.98 187.57 2554.9 178.403ZM2601.97 190.537 2627.17 201.534 2624.42 207.836 2599.22 196.838ZM2645.93 210.405 2670.72 222.307 2667.74 228.505 2642.95 216.602ZM2689.21 231.728 2713.54 244.542 2710.34 250.625 2686 237.811ZM2731.69 254.631 2755.45 268.477 2751.99 274.417 2728.23 260.572ZM2773.16 279.325 2796.3 294.187 2792.59 299.972 2769.45 285.11ZM2813.46 305.924 2835.82 321.93 2831.82 327.52 2809.46 311.514ZM2852.26 334.68 2873.75 351.844 2869.45 357.216 2847.97 340.051ZM2889.24 365.759 2904.95 379.896 2909.55 384.622 2904.62 389.418 2900.1 384.773 2900.26 384.93 2884.64 370.868ZM2923.93 399.401 2932.67 408.378 2942.48 420.018 2937.22 424.447 2927.5 412.902 2927.66 413.085 2919.01 404.197ZM2955.77 435.792 2957.22 437.515 2972.06 458.272 2966.47 462.272 2951.7 441.625 2951.87 441.84 2950.51 440.221ZM2983.52 475.76 2996.54 497.833 2997.48 499.827 2991.25 502.738 2990.39 500.893 2990.54 501.184 2977.6 479.254ZM3006.21 518.511 3011.06 528.891 3016.45 544.374 3009.96 546.634 3004.63 531.317 3004.76 531.643 2999.98 521.422ZM3022.94 564.323 3029.13 591.118 3022.43 592.664 3016.24 565.868ZM2.3073 606.281 26.6438 589.879 0.0629593 633.69-19.0367 586.139ZM3026.6 597.955 3047.36 577.209 3029.63 625.287 3001.8 582.257Z" fill="#7F7F7F" transform="matrix(1 0 0 -1 1080.5 2962.5)"/><text fill="#262626" font-family="Roboto Medium,Roboto Medium_MSFontService,sans-serif" font-weight="500" font-size="69" transform="matrix(1 0 0 1 2415.48 3114)">MULTIPATH</text><text fill="#00B0F0" font-family="Roboto Medium,Roboto Medium_MSFontService,sans-serif" font-weight="500" font-size="64" transform="matrix(1 0 0 1 2332.96 3203)">MPQUIC </text><text fill="#00B0F0" font-family="Segoe UI Symbol,Segoe UI Symbol_MSFontService,sans-serif" font-weight="400" font-size="64" transform="matrix(1 0 0 1 2592.49 3203)">✕</text><text fill="#00B0F0" font-family="Roboto Medium,Roboto Medium_MSFontService,sans-serif" font-weight="500" font-size="64" transform="matrix(1 0 0 1 2660.67 3203)">MPTCP</text><path d="M0 0 248.226 0.568766" stroke="#E7E6E6" stroke-width="3.4375" stroke-miterlimit="8" fill="none" fill-rule="evenodd" transform="matrix(-1 0 0 1 4171.73 2142.5)"/><text fill="#262626" font-family="Roboto Medium,Roboto Medium_MSFontService,sans-serif" font-weight="500" font-size="92" transform="matrix(1 0 0 1 170.12 512)">Host machine </text><text fill="#2497ED" font-family="Roboto Medium,Roboto Medium_MSFontService,sans-serif" font-weight="500" font-size="92" transform="matrix(1 0 0 1 763.661 512)">running</text><path d="M526.5 1025C526.5 988.273 556.273 958.5 593 958.5L733 958.5C769.727 958.5 799.5 988.273 799.5 1025L799.5 1025C799.5 1061.73 769.727 1091.5 733 1091.5L593 1091.5C556.273 1091.5 526.5 1061.73 526.5 1025Z" stroke="#92D050" stroke-width="4.58333" stroke-linecap="square" stroke-miterlimit="8" stroke-dasharray="13.75 4.58333" fill="#F5FAF2" fill-rule="evenodd"/><text fill="#262626" font-family="Roboto Medium,Roboto Medium_MSFontService,sans-serif" font-weight="500" font-size="50" transform="matrix(1 0 0 1 580.285 1042)">ffmpeg</text><path d="M780.82 1821.5 780.82 1929.84 370.832 1929.84 370.832 2145.12 627.5 2145.12" stroke="#E7E6E6" stroke-width="3.4375" stroke-miterlimit="8" fill="none" fill-rule="evenodd"/><path d="M0 0 308.029 0 308.029 117.824 616.059 117.824" stroke="#E7E6E6" stroke-width="3.4375" stroke-miterlimit="8" fill="none" fill-rule="evenodd" transform="matrix(1.83697e-16 1 1 -1.83697e-16 662.5 1091.5)"/><text fill="#A6A6A6" font-family="Roboto Medium,Roboto Medium_MSFontService,sans-serif" font-weight="500" font-size="55" transform="matrix(1 0 0 1 366.577 1548)">docker default:</text><text fill="#A6A6A6" font-family="Roboto,Roboto_MSFontService,sans-serif" font-weight="400" font-size="62" transform="matrix(1 0 0 1 344.233 1631)">172.17.0.X/24</text><path d="M293.5 730.977C293.5 721.325 301.325 713.5 310.977 713.5L1030.02 713.5C1039.68 713.5 1047.5 721.325 1047.5 730.977L1047.5 1180.02C1047.5 1189.68 1039.68 1197.5 1030.02 1197.5L310.977 1197.5C301.325 1197.5 293.5 1189.68 293.5 1180.02Z" stroke="#A6A6A6" stroke-width="6.875" stroke-miterlimit="8" stroke-dasharray="6.875 6.875" stroke-opacity="0.858824" fill="none" fill-rule="evenodd"/><text fill="#A6A6A6" font-family="Roboto Medium,Roboto Medium_MSFontService,sans-serif" font-weight="500" font-size="55" transform="matrix(1 0 0 1 1153.56 830)">Host</text><text fill="#A6A6A6" font-family="Roboto Medium,Roboto Medium_MSFontService,sans-serif" font-weight="500" font-size="55" transform="matrix(1 0 0 1 1271.01 830)">-</text><text fill="#A6A6A6" font-family="Roboto Medium,Roboto Medium_MSFontService,sans-serif" font-weight="500" font-size="55" transform="matrix(1 0 0 1 1289.34 830)">side</text><text fill="#A6A6A6" font-family="Roboto Medium,Roboto Medium_MSFontService,sans-serif" font-weight="500" font-size="55" transform="matrix(1 0 0 1 1406.79 830)">execution </text><text fill="#A6A6A6" font-family="Roboto Medium,Roboto Medium_MSFontService,sans-serif" font-weight="500" font-size="55" transform="matrix(1 0 0 1 1661.16 830)">:</text><text fill="#A6A6A6" font-family="Roboto,Roboto_MSFontService,sans-serif" font-weight="400" font-size="55" transform="matrix(1 0 0 1 1153.56 923)">For convenience, applications can be </text><text fill="#A6A6A6" font-family="Roboto,Roboto_MSFontService,sans-serif" font-weight="400" font-size="55" transform="matrix(1 0 0 1 1153.56 1003)">run either directly from the host, or </text><text fill="#A6A6A6" font-family="Roboto,Roboto_MSFontService,sans-serif" font-weight="400" font-size="55" transform="matrix(1 0 0 1 1153.56 1082)">locally (inside the container) depending </text><text fill="#A6A6A6" font-family="Roboto,Roboto_MSFontService,sans-serif" font-weight="400" font-size="55" transform="matrix(1 0 0 1 1153.56 1161)">on the multipath proxy configuration.</text><text fill="#262626" font-family="Open Sans SemiBold,Open Sans SemiBold_MSFontService,sans-serif" font-weight="600" font-size="46" transform="matrix(1 0 0 1 3972.35 2122)">MPTCP</text><text fill="#262626" font-family="Open Sans SemiBold,Open Sans SemiBold_MSFontService,sans-serif" font-weight="600" font-size="46" transform="matrix(1 0 0 1 3957.45 2199)">MPQUIC</text><text fill="#262626" font-family="Open Sans SemiBold,Open Sans SemiBold_MSFontService,sans-serif" font-weight="600" font-size="46" transform="matrix(1 0 0 1 1061.32 2113)">MPTCP</text><text fill="#262626" font-family="Open Sans SemiBold,Open Sans SemiBold_MSFontService,sans-serif" font-weight="600" font-size="46" transform="matrix(1 0 0 1 1046.42 2190)">MPQUIC</text><text fill="#262626" font-family="Open Sans SemiBold,Open Sans SemiBold_MSFontService,sans-serif" font-weight="600" font-size="46" transform="matrix(1 0 0 1 454.79 2160)">TCP</text><text fill="#262626" font-family="Open Sans SemiBold,Open Sans SemiBold_MSFontService,sans-serif" font-weight="600" font-size="46" transform="matrix(1 0 0 1 4578.2 2159)">TCP</text><g clip-path="url(#clip1)"><g clip-path="url(#clip2)"><g clip-path="url(#clip3)"><path d="M183.58 175.704C181.641 175.643 180.066 177.158 180.005 179.036L180.005 196.485C171.705 189.82 159.527 191.153 152.862 199.454 150.136 202.907 148.621 207.148 148.621 211.571 148.439 222.235 156.921 231.02 167.585 231.202 178.248 231.383 187.033 222.901 187.215 212.238L187.215 179.278C187.215 178.309 186.852 177.4 186.185 176.734 185.458 176.067 184.549 175.704 183.58 175.704M179.036 216.236C177.824 219.145 175.522 221.447 172.614 222.719 169.584 223.992 166.191 223.992 163.162 222.719 160.254 221.508 158.012 219.145 156.8 216.297 155.528 213.328 155.528 209.935 156.8 206.906 158.012 203.998 160.314 201.696 163.162 200.484 166.191 199.211 169.584 199.211 172.614 200.484 175.522 201.756 177.824 204.058 179.036 206.967 180.308 209.875 180.308 213.268 179.036 216.236M223.871 197.939C216.358 190.426 204.119 190.426 196.606 197.939 192.971 201.574 190.972 206.482 190.972 211.571 190.79 222.235 199.272 231.02 209.935 231.202 220.599 231.383 229.384 222.901 229.566 212.238L229.566 211.571C229.566 209.027 229.081 206.543 228.112 204.18 227.142 201.817 225.688 199.696 223.871 197.939M221.386 216.176C220.781 217.63 219.872 218.902 218.781 219.993 217.691 221.083 216.358 221.992 214.964 222.598 211.935 223.871 208.542 223.871 205.513 222.598 202.604 221.386 200.302 219.024 199.09 216.176 197.818 213.207 197.818 209.814 199.09 206.785 200.302 203.877 202.604 201.635 205.513 200.363 208.542 199.09 211.935 199.09 214.964 200.363 216.418 200.968 217.691 201.877 218.781 202.968 219.872 204.058 220.781 205.391 221.386 206.785 222.659 209.875 222.659 213.268 221.386 216.176M303.664 195.819C303.664 195.334 303.543 194.849 303.361 194.425 303.179 194.001 302.876 193.637 302.574 193.274 302.271 192.971 301.847 192.668 301.422 192.486 300.998 192.304 300.514 192.183 300.029 192.183 299.362 192.183 298.696 192.365 298.09 192.729L277.49 206.118 277.49 179.339C277.49 178.369 277.127 177.461 276.46 176.794 275.794 176.128 274.885 175.704 273.916 175.704 271.916 175.704 270.341 177.279 270.28 179.278L270.28 227.203C270.28 228.172 270.644 229.081 271.31 229.747 271.977 230.475 272.886 230.838 273.855 230.838 274.825 230.838 275.733 230.475 276.4 229.747 277.066 229.081 277.49 228.172 277.43 227.203L277.43 214.782 281.61 212.056 297.545 229.929C298.211 230.535 299.06 230.899 299.968 230.838 300.453 230.838 300.938 230.777 301.362 230.535 301.786 230.353 302.149 230.111 302.513 229.747 302.816 229.384 303.119 229.02 303.301 228.596 303.482 228.172 303.604 227.688 303.604 227.203 303.604 226.294 303.24 225.385 302.634 224.719L287.851 208.057 302.271 198.666C303.24 198.06 303.725 196.97 303.664 195.819M243.864 202.968C244.955 201.877 246.288 200.968 247.742 200.363 249.257 199.757 250.832 199.393 252.468 199.393 253.922 199.393 255.315 199.636 256.648 200.12 257.981 200.666 259.254 201.393 260.344 202.362 261.011 202.907 261.859 203.15 262.707 203.15 263.676 203.21 264.646 202.847 265.312 202.12 265.979 201.453 266.342 200.484 266.342 199.514 266.342 198.484 265.918 197.454 265.07 196.788 261.616 193.698 257.133 192.002 252.468 192.123 241.804 192.123 233.14 200.787 233.14 211.45 233.14 222.113 241.744 230.717 252.347 230.777 257.012 230.777 261.495 229.142 265.009 226.112 265.736 225.446 266.161 224.476 266.161 223.446 266.221 221.508 264.706 219.932 262.828 219.872L262.586 219.872C261.738 219.872 260.95 220.114 260.284 220.599 259.193 221.568 257.981 222.295 256.648 222.841 255.315 223.325 253.861 223.568 252.468 223.568 250.832 223.568 249.257 223.265 247.742 222.598 246.288 221.992 245.016 221.083 243.864 219.993 239.139 215.267 239.139 207.633 243.804 202.907 243.864 203.028 243.864 203.028 243.864 202.968M375.218 194.667C374.491 194.001 373.703 193.516 372.794 193.213 371.764 192.85 370.674 192.607 369.583 192.486 368.493 192.365 367.402 192.304 366.312 192.304 364.13 192.304 361.889 192.668 359.829 193.456 357.769 194.183 355.891 195.273 354.194 196.606L354.194 195.879C354.133 193.88 352.437 192.365 350.438 192.426 348.557 192.489 347.047 193.999 346.984 195.879L346.984 227.324C347.045 229.323 348.741 230.838 350.741 230.777 352.621 230.714 354.131 229.205 354.194 227.324L354.194 211.632C354.194 209.996 354.497 208.421 355.163 206.906 355.769 205.452 356.618 204.18 357.769 203.089 358.859 201.998 360.192 201.09 361.586 200.484 363.1 199.878 364.676 199.514 366.312 199.514 367.947 199.514 369.523 199.817 371.037 200.363 371.522 200.605 372.007 200.726 372.552 200.726 373.037 200.726 373.521 200.666 373.946 200.423 374.37 200.241 374.733 199.999 375.097 199.636 375.4 199.333 375.703 198.908 375.884 198.484 376.066 198.06 376.187 197.576 376.187 197.091 376.248 196.182 375.884 195.334 375.218 194.667M341.774 204.18C338.684 197.03 331.656 192.365 323.9 192.304 313.237 192.304 304.634 200.908 304.573 211.571 304.573 222.235 313.237 230.899 323.9 230.899 328.505 230.899 332.988 229.263 336.503 226.233L336.624 226.112C336.927 225.87 337.23 225.567 337.411 225.203 338.562 223.507 338.138 221.265 336.503 220.114 335.109 219.205 333.291 219.387 332.08 220.538 331.958 220.659 331.595 220.962 331.595 221.023L331.534 221.083C330.504 221.932 329.353 222.659 328.081 223.083 326.748 223.568 325.354 223.81 323.9 223.749 322.567 223.749 321.295 223.568 320.023 223.143 318.811 222.719 317.66 222.174 316.63 221.386 315.6 220.659 314.691 219.751 313.964 218.721 313.176 217.691 312.631 216.479 312.268 215.267L339.532 215.267C340.501 215.267 341.41 214.904 342.077 214.237 342.804 213.571 343.167 212.662 343.107 211.692 343.167 209.087 342.682 206.543 341.774 204.18M312.268 208.057C312.631 206.785 313.176 205.634 313.964 204.604 314.691 203.574 315.6 202.665 316.63 201.938 317.66 201.211 318.811 200.605 320.023 200.181 321.234 199.757 322.567 199.575 323.84 199.575 325.112 199.575 326.445 199.757 327.657 200.181 330.08 200.968 332.201 202.544 333.715 204.604 334.503 205.634 335.048 206.845 335.473 208.057ZM362.919 225.628C361.525 225.628 360.435 226.779 360.435 228.172 360.435 229.566 361.586 230.656 362.979 230.656 364.373 230.656 365.463 229.505 365.463 228.172 365.463 226.718 364.312 225.628 362.919 225.628ZM362.919 230.111C361.828 230.172 360.919 229.323 360.859 228.233 360.798 227.142 361.646 226.233 362.737 226.173 363.827 226.112 364.736 226.96 364.797 228.051L364.797 228.172C364.857 229.202 364.009 230.111 362.979 230.111Z" fill="#2497ED" transform="matrix(1.00797 0 0 1 1126.43 255.62)"/><path d="M363.525 228.172C363.827 228.112 364.009 227.869 364.009 227.566 364.009 227.324 363.949 227.142 363.767 227.021 363.525 226.9 363.222 226.839 362.919 226.839 362.616 226.839 362.252 226.839 361.949 226.9L361.949 229.384 362.495 229.384 362.495 228.415 362.737 228.415C363.04 228.415 363.222 228.536 363.282 228.778 363.343 228.96 363.403 229.202 363.464 229.384L364.07 229.384C363.949 229.202 363.888 228.96 363.888 228.778 363.949 228.536 363.767 228.293 363.525 228.172M362.797 227.99 362.495 227.99 362.495 227.263 362.797 227.263C363.161 227.263 363.343 227.445 363.343 227.627 363.403 227.869 363.1 228.051 362.797 227.99M142.017 183.822C141.653 183.519 138.382 181.035 131.354 181.035 129.536 181.035 127.658 181.217 125.84 181.52 124.507 172.25 116.813 167.767 116.51 167.524L114.631 166.434 113.42 168.191C111.905 170.554 110.754 173.219 110.087 175.946 108.815 181.217 109.603 186.185 112.268 190.426 109.057 192.244 103.847 192.668 102.756 192.729L16.7221 192.729C14.4804 192.729 12.6628 194.546 12.6628 196.788 12.5416 204.301 13.8139 211.814 16.4192 218.902 19.388 226.658 23.8109 232.413 29.5061 235.927 35.9283 239.866 46.41 242.107 58.2245 242.107 63.5562 242.107 68.8879 241.623 74.159 240.653 81.4901 239.32 88.5182 236.776 95.0011 233.08 100.333 229.99 105.119 226.052 109.179 221.447 116.025 213.752 120.084 205.149 123.053 197.515L124.265 197.515C131.717 197.515 136.322 194.546 138.866 192.002 140.563 190.426 141.835 188.487 142.744 186.306L143.289 184.731Z" fill="#2497ED" transform="matrix(1.00797 0 0 1 1126.43 255.62)"/><path d="M24.7197 190.244 36.2313 190.244C36.7766 190.244 37.2613 189.82 37.2613 189.214L37.2613 178.915C37.2613 178.369 36.8372 177.885 36.2313 177.885L24.7197 177.885C24.1744 177.885 23.6897 178.309 23.6897 178.915L23.6897 189.214C23.7503 189.82 24.1744 190.244 24.7197 190.244ZM40.5936 190.244 52.1052 190.244C52.6505 190.244 53.1352 189.82 53.1352 189.214L53.1352 178.915C53.1352 178.369 52.7111 177.885 52.1052 177.885L40.5936 177.885C40.0483 177.885 39.5636 178.309 39.5636 178.915L39.5636 189.214C39.6242 189.82 40.0483 190.244 40.5936 190.244M56.7704 190.244 68.282 190.244C68.8273 190.244 69.312 189.82 69.312 189.214L69.312 178.915C69.312 178.369 68.8879 177.885 68.282 177.885L56.7704 177.885C56.2251 177.885 55.7404 178.309 55.7404 178.915L55.7404 189.214C55.7404 189.82 56.1645 190.244 56.7704 190.244ZM72.7049 190.244 84.2165 190.244C84.7618 190.244 85.2465 189.82 85.2465 189.214L85.2465 178.915C85.2465 178.369 84.8224 177.885 84.2165 177.885L72.7049 177.885C72.1596 177.885 71.6749 178.309 71.6749 178.915L71.6749 189.214C71.6749 189.82 72.1596 190.244 72.7049 190.244ZM40.5936 175.522 52.1052 175.522C52.6505 175.522 53.1352 175.037 53.1352 174.492L53.1352 164.192C53.1352 163.647 52.7111 163.162 52.1052 163.162L40.5936 163.162C40.0483 163.162 39.5636 163.586 39.5636 164.192L39.5636 174.492C39.6242 175.037 40.0483 175.522 40.5936 175.522M56.7704 175.522 68.282 175.522C68.8273 175.522 69.312 175.037 69.312 174.492L69.312 164.192C69.312 163.647 68.8879 163.162 68.282 163.162L56.7704 163.162C56.2251 163.162 55.7404 163.586 55.7404 164.192L55.7404 174.492C55.7404 175.037 56.1645 175.522 56.7704 175.522M72.7049 175.522 84.2165 175.522C84.7618 175.522 85.2465 175.037 85.2465 174.492L85.2465 164.192C85.2465 163.647 84.7618 163.162 84.2165 163.162L72.7049 163.162C72.1596 163.162 71.6749 163.586 71.6749 164.192L71.6749 174.492C71.6749 175.037 72.1596 175.522 72.7049 175.522M72.7049 160.738 84.2165 160.738C84.7618 160.738 85.2465 160.314 85.2465 159.708L85.2465 149.409C85.2465 148.863 84.7618 148.379 84.2165 148.379L72.7049 148.379C72.1596 148.379 71.6749 148.803 71.6749 149.409L71.6749 159.708C71.6749 160.254 72.1596 160.738 72.7049 160.738M88.7606 190.244 100.272 190.244C100.817 190.244 101.302 189.82 101.302 189.214L101.302 178.915C101.302 178.369 100.878 177.885 100.272 177.885L88.7606 177.885C88.2153 177.885 87.7306 178.309 87.7306 178.915L87.7306 189.214C87.7912 189.82 88.2153 190.244 88.7606 190.244" fill="#2497ED" transform="matrix(1.00797 0 0 1 1126.43 255.62)"/></g></g></g><g clip-path="url(#clip4)"><g clip-path="url(#clip5)"><g clip-path="url(#clip6)"><path d="M134.856 129.07C133.431 129.025 132.274 130.138 132.23 131.518L132.23 144.336C126.132 139.44 117.186 140.419 112.291 146.516 110.288 149.053 109.175 152.169 109.175 155.418 109.042 163.251 115.273 169.704 123.106 169.838 130.939 169.971 137.393 163.741 137.526 155.907L137.526 131.696C137.526 130.984 137.259 130.316 136.769 129.826 136.235 129.337 135.568 129.07 134.856 129.07M131.518 158.845C130.627 160.981 128.936 162.672 126.8 163.607 124.575 164.542 122.082 164.542 119.857 163.607 117.72 162.717 116.074 160.981 115.184 158.889 114.249 156.708 114.249 154.216 115.184 151.991 116.074 149.854 117.765 148.163 119.857 147.273 122.082 146.338 124.575 146.338 126.8 147.273 128.936 148.208 130.627 149.899 131.518 152.035 132.452 154.172 132.452 156.664 131.518 158.845M164.453 145.404C158.934 139.885 149.943 139.885 144.425 145.404 141.754 148.074 140.285 151.679 140.285 155.418 140.152 163.251 146.383 169.704 154.216 169.838 162.049 169.971 168.503 163.741 168.636 155.907L168.636 155.418C168.636 153.548 168.28 151.724 167.568 149.988 166.856 148.252 165.788 146.694 164.453 145.404M162.628 158.8C162.183 159.868 161.515 160.803 160.714 161.604 159.913 162.405 158.934 163.073 157.91 163.518 155.685 164.453 153.192 164.453 150.967 163.518 148.831 162.628 147.139 160.892 146.249 158.8 145.315 156.619 145.315 154.127 146.249 151.902 147.139 149.765 148.831 148.119 150.967 147.184 153.192 146.249 155.685 146.249 157.91 147.184 158.978 147.629 159.913 148.297 160.714 149.098 161.515 149.899 162.183 150.878 162.628 151.902 163.562 154.172 163.562 156.664 162.628 158.8M223.068 143.846C223.068 143.49 222.979 143.134 222.846 142.822 222.712 142.511 222.489 142.244 222.267 141.977 222.044 141.754 221.733 141.532 221.421 141.398 221.11 141.265 220.754 141.176 220.398 141.176 219.908 141.176 219.419 141.309 218.973 141.576L203.841 151.412 203.841 131.74C203.841 131.028 203.574 130.36 203.085 129.871 202.595 129.381 201.927 129.07 201.215 129.07 199.747 129.07 198.589 130.227 198.545 131.696L198.545 166.9C198.545 167.613 198.812 168.28 199.301 168.77 199.791 169.304 200.459 169.571 201.171 169.571 201.883 169.571 202.55 169.304 203.04 168.77 203.53 168.28 203.841 167.613 203.797 166.9L203.797 157.777 206.868 155.774 218.573 168.903C219.062 169.348 219.686 169.615 220.353 169.571 220.709 169.571 221.065 169.526 221.377 169.348 221.688 169.215 221.955 169.037 222.222 168.77 222.445 168.503 222.668 168.236 222.801 167.924 222.935 167.613 223.024 167.257 223.024 166.9 223.024 166.233 222.757 165.565 222.311 165.076L211.452 152.836 222.044 145.938C222.757 145.493 223.113 144.692 223.068 143.846M179.14 149.098C179.941 148.297 180.92 147.629 181.988 147.184 183.101 146.739 184.258 146.472 185.46 146.472 186.528 146.472 187.552 146.65 188.531 147.006 189.51 147.407 190.445 147.941 191.246 148.653 191.735 149.053 192.358 149.231 192.981 149.231 193.694 149.276 194.406 149.009 194.895 148.475 195.385 147.985 195.652 147.273 195.652 146.561 195.652 145.804 195.34 145.048 194.717 144.558 192.18 142.288 188.887 141.042 185.46 141.131 177.627 141.131 171.262 147.496 171.262 155.329 171.262 163.162 177.582 169.482 185.371 169.526 188.798 169.526 192.091 168.325 194.673 166.099 195.207 165.61 195.518 164.898 195.518 164.141 195.563 162.717 194.45 161.56 193.07 161.515L192.892 161.515C192.269 161.515 191.691 161.693 191.201 162.049 190.4 162.761 189.51 163.295 188.531 163.696 187.552 164.052 186.483 164.23 185.46 164.23 184.258 164.23 183.101 164.008 181.988 163.518 180.92 163.073 179.986 162.405 179.14 161.604 175.668 158.133 175.668 152.525 179.095 149.053 179.14 149.142 179.14 149.142 179.14 149.098M275.631 143C275.097 142.511 274.518 142.155 273.85 141.932 273.094 141.665 272.293 141.487 271.491 141.398 270.69 141.309 269.889 141.265 269.088 141.265 267.486 141.265 265.839 141.532 264.326 142.11 262.813 142.644 261.433 143.445 260.187 144.425L260.187 143.89C260.142 142.422 258.896 141.309 257.427 141.354 256.046 141.4 254.937 142.509 254.89 143.89L254.89 166.99C254.935 168.458 256.181 169.571 257.65 169.526 259.031 169.48 260.14 168.371 260.187 166.99L260.187 155.462C260.187 154.261 260.409 153.103 260.899 151.991 261.344 150.923 261.967 149.988 262.813 149.187 263.614 148.386 264.593 147.718 265.617 147.273 266.729 146.828 267.886 146.561 269.088 146.561 270.29 146.561 271.447 146.783 272.56 147.184 272.916 147.362 273.272 147.451 273.672 147.451 274.028 147.451 274.384 147.407 274.696 147.228 275.008 147.095 275.275 146.917 275.542 146.65 275.764 146.427 275.987 146.116 276.12 145.804 276.254 145.493 276.343 145.137 276.343 144.781 276.387 144.113 276.12 143.49 275.631 143M251.063 149.988C248.793 144.736 243.63 141.309 237.933 141.265 230.1 141.265 223.78 147.585 223.736 155.418 223.736 163.251 230.1 169.615 237.933 169.615 241.316 169.615 244.609 168.414 247.191 166.188L247.28 166.099C247.502 165.921 247.725 165.699 247.858 165.432 248.704 164.186 248.392 162.539 247.191 161.693 246.167 161.026 244.832 161.159 243.942 162.005 243.853 162.094 243.586 162.316 243.586 162.361L243.541 162.405C242.785 163.028 241.939 163.562 241.004 163.874 240.025 164.23 239.002 164.408 237.933 164.364 236.954 164.364 236.02 164.23 235.085 163.919 234.195 163.607 233.349 163.206 232.593 162.628 231.836 162.094 231.168 161.426 230.634 160.67 230.056 159.913 229.655 159.023 229.388 158.133L249.416 158.133C250.128 158.133 250.796 157.866 251.285 157.376 251.819 156.886 252.087 156.219 252.042 155.507 252.087 153.593 251.73 151.724 251.063 149.988M229.388 152.836C229.655 151.902 230.056 151.056 230.634 150.299 231.168 149.543 231.836 148.875 232.593 148.341 233.349 147.807 234.195 147.362 235.085 147.05 235.975 146.739 236.954 146.605 237.889 146.605 238.823 146.605 239.803 146.739 240.693 147.05 242.473 147.629 244.031 148.786 245.143 150.299 245.722 151.056 246.123 151.946 246.434 152.836ZM266.596 165.743C265.572 165.743 264.771 166.589 264.771 167.613 264.771 168.636 265.617 169.437 266.64 169.437 267.664 169.437 268.465 168.592 268.465 167.613 268.465 166.544 267.619 165.743 266.596 165.743ZM266.596 169.037C265.795 169.081 265.127 168.458 265.082 167.657 265.038 166.856 265.661 166.188 266.462 166.144 267.263 166.099 267.931 166.722 267.975 167.524L267.975 167.613C268.02 168.369 267.397 169.037 266.64 169.037Z" fill="#2497ED" transform="matrix(1 0 0 1.00215 1006.56 378.769)"/><path d="M267.041 167.613C267.263 167.568 267.397 167.39 267.397 167.168 267.397 166.99 267.352 166.856 267.219 166.767 267.041 166.678 266.818 166.633 266.596 166.633 266.373 166.633 266.106 166.633 265.884 166.678L265.884 168.503 266.284 168.503 266.284 167.791 266.462 167.791C266.685 167.791 266.818 167.88 266.863 168.058 266.907 168.191 266.952 168.369 266.996 168.503L267.441 168.503C267.352 168.369 267.308 168.191 267.308 168.058 267.352 167.88 267.219 167.702 267.041 167.613M266.507 167.479 266.284 167.479 266.284 166.945 266.507 166.945C266.774 166.945 266.907 167.079 266.907 167.212 266.952 167.39 266.729 167.524 266.507 167.479M104.324 135.034C104.057 134.811 101.654 132.986 96.4907 132.986 95.1555 132.986 93.7758 133.12 92.4406 133.342 91.4615 126.533 85.8091 123.239 85.5866 123.061L84.2069 122.26 83.3167 123.551C82.2041 125.287 81.3584 127.245 80.8689 129.248 79.9342 133.12 80.5128 136.769 82.4711 139.885 80.1122 141.22 76.2847 141.532 75.4835 141.576L12.2839 141.576C10.6371 141.576 9.30192 142.911 9.30192 144.558 9.21291 150.077 10.1475 155.596 12.0613 160.803 14.2422 166.5 17.4912 170.728 21.6748 173.309 26.3925 176.202 34.0922 177.849 42.771 177.849 46.6876 177.849 50.6042 177.493 54.4763 176.781 59.8616 175.802 65.0244 173.933 69.7867 171.218 73.7033 168.948 77.2193 166.055 80.2013 162.672 85.2305 157.02 88.2125 150.7 90.3933 145.092L91.2834 145.092C96.7578 145.092 100.14 142.911 102.01 141.042 103.256 139.885 104.19 138.461 104.858 136.858L105.259 135.701Z" fill="#2497ED" transform="matrix(1 0 0 1.00215 1006.56 378.769)"/><path d="M18.1588 139.751 26.6151 139.751C27.0156 139.751 27.3717 139.44 27.3717 138.995L27.3717 131.429C27.3717 131.028 27.0601 130.672 26.6151 130.672L18.1588 130.672C17.7582 130.672 17.4022 130.984 17.4022 131.429L17.4022 138.995C17.4467 139.44 17.7582 139.751 18.1588 139.751ZM29.8196 139.751 38.2758 139.751C38.6764 139.751 39.0325 139.44 39.0325 138.995L39.0325 131.429C39.0325 131.028 38.7209 130.672 38.2758 130.672L29.8196 130.672C29.419 130.672 29.0629 130.984 29.0629 131.429L29.0629 138.995C29.1074 139.44 29.419 139.751 29.8196 139.751M41.7029 139.751 50.1592 139.751C50.5597 139.751 50.9158 139.44 50.9158 138.995L50.9158 131.429C50.9158 131.028 50.6042 130.672 50.1592 130.672L41.7029 130.672C41.3023 130.672 40.9463 130.984 40.9463 131.429L40.9463 138.995C40.9463 139.44 41.2578 139.751 41.7029 139.751ZM53.4082 139.751 61.8645 139.751C62.265 139.751 62.6211 139.44 62.6211 138.995L62.6211 131.429C62.6211 131.028 62.3095 130.672 61.8645 130.672L53.4082 130.672C53.0076 130.672 52.6515 130.984 52.6515 131.429L52.6515 138.995C52.6515 139.44 53.0076 139.751 53.4082 139.751ZM29.8196 128.936 38.2758 128.936C38.6764 128.936 39.0325 128.58 39.0325 128.18L39.0325 120.613C39.0325 120.213 38.7209 119.857 38.2758 119.857L29.8196 119.857C29.419 119.857 29.0629 120.168 29.0629 120.613L29.0629 128.18C29.1074 128.58 29.419 128.936 29.8196 128.936M41.7029 128.936 50.1592 128.936C50.5597 128.936 50.9158 128.58 50.9158 128.18L50.9158 120.613C50.9158 120.213 50.6042 119.857 50.1592 119.857L41.7029 119.857C41.3023 119.857 40.9463 120.168 40.9463 120.613L40.9463 128.18C40.9463 128.58 41.2578 128.936 41.7029 128.936M53.4082 128.936 61.8645 128.936C62.265 128.936 62.6211 128.58 62.6211 128.18L62.6211 120.613C62.6211 120.213 62.265 119.857 61.8645 119.857L53.4082 119.857C53.0076 119.857 52.6515 120.168 52.6515 120.613L52.6515 128.18C52.6515 128.58 53.0076 128.936 53.4082 128.936M53.4082 118.077 61.8645 118.077C62.265 118.077 62.6211 117.765 62.6211 117.32L62.6211 109.754C62.6211 109.353 62.265 108.997 61.8645 108.997L53.4082 108.997C53.0076 108.997 52.6515 109.309 52.6515 109.754L52.6515 117.32C52.6515 117.72 53.0076 118.077 53.4082 118.077M65.2025 139.751 73.6588 139.751C74.0593 139.751 74.4154 139.44 74.4154 138.995L74.4154 131.429C74.4154 131.028 74.1038 130.672 73.6588 130.672L65.2025 130.672C64.8019 130.672 64.4458 130.984 64.4458 131.429L64.4458 138.995C64.4903 139.44 64.8019 139.751 65.2025 139.751" fill="#2497ED" transform="matrix(1 0 0 1.00215 1006.56 378.769)"/></g></g></g></g></svg>